PathFileType	4	(X/Y/Z)	Kaydara																																																																																																																									
DataRate	CameraRate	NumFrames	NumMarkers	Units	OrigDataRate	OrigDataStartFrame	OrigNumFrames																																																																																																																					
30	30	8	41	mm	30	1	145																																																																																																																					
Frame#	Time	NABA_LFHD			NABA_RFHD			NABA_LBHD			NABA_RBHD			NABA_LFTShould			NABA_RFTShould			NABA_LRRShould			NABA_RRRShould			NABA_T10			NABA_STRN			NABA_TRUN			NABA_LSHO			NABA_LUPA			NABA_LELB			NABA_LFRM			NABA_LWRA			NABA_LWRB			NABA_LFIN			NABA_RSHO			NABA_RUPA			NABA_RELB			NABA_RFRM			NABA_RWRA			NABA_RWRB			NABA_RFIN			NABA_LFWT			NABA_RFWT			NABA_LBWT			NABA_RBWT			NABA_LTHI			NABA_LKNE			NABA_LSHN			NABA_LANK			NABA_LHEE			NABA_LTOE			NABA_RTHI			NABA_RKNE			NABA_RSHN			NABA_RANK			NABA_RHEE			NABA_RTOE		
		X1	Y1	Z1	X2	Y2	Z2	X3	Y3	Z3	X4	Y4	Z4	X5	Y5	Z5	X6	Y6	Z6	X7	Y7	Z7	X8	Y8	Z8	X9	Y9	Z9	X10	Y10	Z10	X11	Y11	Z11	X12	Y12	Z12	X13	Y13	Z13	X14	Y14	Z14	X15	Y15	Z15	X16	Y16	Z16	X17	Y17	Z17	X18	Y18	Z18	X19	Y19	Z19	X20	Y20	Z20	X21	Y21	Z21	X22	Y22	Z22	X23	Y23	Z23	X24	Y24	Z24	X25	Y25	Z25	X26	Y26	Z26	X27	Y27	Z27	X28	Y28	Z28	X29	Y29	Z29	X30	Y30	Z30	X31	Y31	Z31	X32	Y32	Z32	X33	Y33	Z33	X34	Y34	Z34	X35	Y35	Z35	X36	Y36	Z36	X37	Y37	Z37	X38	Y38	Z38	X39	Y39	Z39	X40	Y40	Z40	X41	Y41	Z41
																																																																																																																												
1	0.01	226.30966	1590.51361	-1892.46796	55.2903	1564.28711	-1868.97263	234.49112	1602.41272	-2017.55295	19.16983	1580.07172	-1963.07709	210.62038	1347.26212	-1977.22626	64.83822	1328.85681	-1970.10757	197.19658	1399.40796	-2098.40698	53.92106	1394.15009	-2077.60208	128.89845	1231.07643	-2158.48419	149.32131	1290.39902	-1922.34528	155.50676	1191.79642	-1874.98123	295.26632	1372.34879	-2035.77072	355.886	1156.61903	-2084.86252	375.33882	1059.69467	-2071.28326	367.94456	971.6301	-2084.00635	335.38712	833.4919	-1988.36319	406.10302	833.48404	-2005.6015	395.31044	779.49226	-1953.60672	-13.67047	1364.78027	-2001.86386	-79.07109	1165.37231	-2067.17041	-106.50991	1037.09999	-2020.11444	-109.73208	939.71497	-2006.56677	-37.02366	825.27939	-1933.15689	-111.3477	811.28151	-1923.33588	-86.96424	774.7139	-1891.4328	268.7182	960.68283	-1978.45551	-4.3621	952.49886	-1966.25275	202.06097	987.3806	-2147.04056	42.07419	1020.24521	-2143.34763	281.24929	657.09061	-2090.90302	284.62713	509.87297	-2024.49188	244.38042	308.07022	-2014.36539	277.93072	165.257	-2096.11771	222.57488	115.53678	-2152.19559	256.23148	94.12242	-1981.70364	-0.94575	667.84752	-2099.69315	22.46385	503.80428	-1987.75757	34.49872	329.8262	-2017.02591	30.6806	141.59866	-2087.25464	72.5508	99.53147	-2155.72311	57.14758	83.58154	-1982.40555
2	0.043	226.84841	1591.27563	-1893.32626	55.16669	1564.17389	-1869.32724	234.0251	1601.96899	-2018.15002	18.7425	1579.15543	-1963.68179	211.55638	1347.67944	-1976.67053	65.72248	1328.32123	-1968.75381	197.65043	1399.62433	-2098.27301	54.40614	1393.59894	-2077.44308	129.92188	1230.83344	-2158.44193	150.54529	1290.59525	-1921.87317	157.22341	1191.73233	-1874.85641	295.86895	1373.0336	-2035.68588	356.81126	1157.27638	-2084.91013	375.5957	1060.35057	-2072.45789	368.01079	972.48413	-2085.94299	333.91529	833.6084	-1991.48087	404.84005	833.52051	-2008.42758	393.82271	779.83109	-1956.77338	-12.92219	1363.98819	-2001.42288	-78.3283	1165.11436	-2067.27692	-105.23064	1036.41747	-2020.19272	-109.50688	939.39598	-2008.41492	-37.75493	822.56035	-1937.16949	-112.4948	809.43268	-1927.76733	-88.54709	771.79726	-1896.43631	270.71712	959.82292	-1979.15573	-2.25963	952.16629	-1965.66605	203.45772	986.78795	-2147.30026	43.5407	1019.84741	-2142.97623	281.38327	655.98839	-2091.41205	285.42534	508.86814	-2024.73984	244.98068	307.28203	-2014.06693	276.76117	164.34212	-2096.36185	220.55473	115.22982	-2151.2825	255.93651	90.87734	-1980.8493	0.09975	667.64709	-2098.55316	23.44589	503.71758	-1986.37756	35.1969	329.46682	-2015.70969	30.92372	141.58103	-2086.89896	72.63094	99.59117	-2155.55725	57.20808	83.56948	-1982.38998
3	0.077	227.16223	1591.84921	-1893.98834	55.64654	1564.22379	-1869.7435	234.29958	1601.58005	-2018.96576	19.33588	1578.28568	-1964.06723	213.23814	1348.17169	-1975.9491	65.94094	1329.4342	-1964.01978	199.17749	1399.39438	-2097.67456	55.83563	1392.91382	-2077.39075	132.07501	1230.30693	-2158.09006	152.29517	1290.74402	-1920.83664	159.44058	1191.9619	-1874.21234	297.28592	1373.54324	-2035.17395	358.66535	1158.46085	-2085.34943	376.78604	1060.52544	-2072.18353	369.05273	973.47916	-2087.53052	333.50578	833.82446	-1995.01236	404.3906	833.3181	-2011.02554	393.06297	779.86496	-1959.94659	-11.55456	1363.19534	-2001.28647	-76.07612	1164.16573	-2067.40204	-103.00088	1035.53711	-2020.79269	-108.00969	938.79463	-2010.44662	-38.67936	819.88426	-1940.80002	-113.20095	807.71255	-1931.85303	-90.10783	769.06792	-1902.07581	274.25652	959.0181	-1978.56522	1.02334	952.29813	-1964.29367	205.48822	985.96207	-2147.24915	45.74682	1019.56223	-2141.8837	281.89266	654.97574	-2092.4176	286.81122	507.88818	-2026.72424	246.42315	306.863	-2014.2334	276.45626	162.9114	-2095.63126	219.93732	114.50681	-2149.46884	254.29914	85.22391	-1978.03574	1.47407	667.3967	-2096.88019	25.21487	503.59131	-1984.56604	36.76104	329.86656	-2013.5994	31.2134	141.70233	-2086.62476	72.82576	99.71667	-2155.44022	57.31136	83.60911	-1982.37778
4	0.11	228.11625	1592.29462	-1894.64172	56.8019	1564.24576	-1870.2121	235.27731	1601.61591	-2019.73053	20.32125	1577.81418	-1964.73083	215.53534	1349.04861	-1975.22247	68.44364	1329.14703	-1963.48053	201.13819	1399.67224	-2097.81616	57.7703	1392.20642	-2077.46063	134.99867	1229.71214	-2157.42874	154.73866	1291.36566	-1920.13428	162.13518	1192.60277	-1873.18375	299.34973	1374.33105	-2034.29214	361.44226	1159.46335	-2084.89746	378.99731	1061.28456	-2071.91986	370.99205	974.49646	-2088.26324	333.64876	833.80234	-1998.56384	404.67049	833.00491	-2013.50586	392.91458	779.40666	-1963.11539	-9.66321	1362.38098	-2001.35117	-72.62903	1163.396	-2068.08441	-100.13376	1034.78943	-2021.92917	-105.90841	938.25706	-2012.68829	-38.68587	817.91916	-1943.37311	-113.29064	806.42563	-1935.50415	-91.28939	767.41058	-1905.65903	278.26324	958.38638	-1978.21259	5.25841	952.39296	-1962.38907	208.60653	986.00113	-2146.50757	48.76048	1019.53247	-2140.16113	283.13009	654.78989	-2093.81134	288.44461	507.25441	-2029.09439	247.60456	306.6651	-2015.36621	276.24317	162.20772	-2095.44434	219.09048	113.55862	-2148.62946	252.8916	82.8075	-1976.49826	3.86952	667.05452	-2094.49066	28.01091	503.52905	-1982.46948	38.61069	329.74159	-2012.06375	31.73892	141.9034	-2086.08688	73.10216	99.8897	-2155.17258	57.47743	83.57195	-1982.28729
5	0.143	229.63835	1592.79938	-1895.11276	58.34689	1564.1803	-1870.77194	236.75926	1602.09488	-2020.09338	21.82163	1577.67731	-1965.30365	218.08306	1350.12665	-1974.66522	70.87196	1329.85199	-1962.99454	203.68855	1399.88419	-2097.72507	60.28539	1391.80237	-2077.58301	138.24265	1229.19731	-2156.5741	157.58037	1292.45453	-1919.3045	165.16174	1193.89053	-1871.87698	302.03672	1375.6131	-2033.79547	365.06828	1160.94704	-2083.56796	381.86665	1062.18513	-2070.11078	374.03011	976.03081	-2088.00568	334.46808	833.71582	-2001.52344	405.83328	833.13316	-2015.24292	393.03345	778.74161	-1966.10153	-7.21023	1362.10892	-2001.39099	-68.47744	1163.07907	-2068.9006	-96.96511	1034.52843	-2023.38974	-103.22527	938.11935	-2014.70551	-38.73716	817.40738	-1944.38599	-112.5212	805.99815	-1938.38562	-91.58229	766.79092	-1908.29102	282.68217	958.07961	-1977.30103	9.94199	952.37816	-1960.11551	212.30297	986.58127	-2145.17319	52.37493	1019.75372	-2138.07022	284.95293	655.10437	-2095.42984	290.57575	507.05193	-2032.51892	249.63652	306.76062	-2017.63245	276.42605	161.86636	-2097.41959	218.45659	112.85586	-2149.00009	252.8541	82.34594	-1976.70517	7.40635	667.20337	-2092.63153	31.30738	503.51902	-1980.98175	40.64562	329.84486	-2011.09955	32.35816	142.21383	-2085.77438	73.53375	100.15585	-2154.97787	57.68169	83.57542	-1982.2261
6	0.177	231.61467	1593.28476	-1895.24155	60.26671	1564.10645	-1871.24466	238.83831	1602.94998	-2020.18906	23.96232	1577.63779	-1965.61737	221.03592	1351.48392	-1974.27032	73.58896	1330.6575	-1962.96097	206.54665	1400.19775	-2097.64923	63.15328	1391.74561	-2077.883	141.76188	1228.81081	-2155.49423	160.50749	1294.00864	-1919.04907	168.64071	1195.73837	-1870.64072	304.85392	1376.78284	-2033.18314	369.22016	1162.71141	-2081.8573	385.26707	1063.37135	-2067.71347	377.88723	977.88467	-2086.98944	336.48552	834.26582	-2003.93463	408.01102	833.77289	-2015.90012	393.53775	777.95242	-1968.39188	-4.45064	1362.42188	-2001.70761	-64.30977	1163.50677	-2069.73022	-93.59656	1034.94621	-2024.83322	-100.01175	938.56033	-2016.39023	-36.26766	817.47353	-1944.79492	-110.72145	806.33522	-1940.39886	-90.64137	767.20436	-1909.89761	287.50175	957.95914	-1976.36765	14.97281	952.27013	-1957.73544	216.36847	987.2686	-2143.74725	56.40781	1020.1487	-2135.76965	287.53668	655.86884	-2097.44598	293.39075	507.09633	-2036.03012	251.44983	307.20831	-2019.93164	277.49056	161.43492	-2098.2901	219.25121	112.36876	-2149.62753	253.16233	82.21542	-1976.94885	11.21007	667.59552	-2090.97977	34.84605	503.5281	-1979.83368	42.9661	329.92233	-2010.66147	33.17394	142.61968	-2085.50461	73.96183	100.35119	-2154.86588	57.88671	83.59813	-1982.15546
7	0.21	234.062	1593.77411	-1895.35919	62.655	1564.33777	-1871.50269	241.34209	1603.59329	-2020.29236	26.44076	1577.92038	-1965.90851	224.21835	1352.7243	-1974.02679	77.92861	1330.86823	-1962.68036	209.60609	1400.3215	-2097.49954	66.28152	1391.58081	-2077.99164	145.53487	1228.31528	-2154.28986	163.8829	1295.56015	-1918.17307	172.36431	1197.61124	-1869.41483	307.992	1377.98752	-2032.91336	373.63007	1164.17664	-2080.0766	389.2157	1064.61082	-2065.45776	382.24754	979.4783	-2085.57892	339.07021	834.60403	-2004.71405	410.90176	834.81499	-2015.83633	394.53842	777.14638	-1969.61151	-1.39543	1362.92206	-2001.91422	-60.3034	1164.42429	-2070.39337	-90.3863	1035.7151	-2026.02371	-96.59744	939.15024	-2017.43256	-33.07998	818.27072	-1944.40338	-108.12662	806.99043	-1941.13907	-88.46366	768.2074	-1910.18723	293.1922	958.05923	-1974.80515	20.33104	951.94267	-1955.60425	221.03559	988.26218	-2142.06909	60.99764	1020.80719	-2133.45673	291.48706	656.5609	-2099.04999	296.67749	507.00188	-2039.20807	253.86862	307.78448	-2022.32254	278.94535	161.07157	-2099.42352	220.49866	111.91233	-2150.40985	253.65711	82.20161	-1977.26547	14.6525	668.00919	-2089.6579	38.20784	503.57033	-1979.12445	44.88524	330.25383	-2010.16205	33.78984	143.05054	-2085.38651	74.26669	100.56862	-2154.79828	57.98421	83.64806	-1982.08588
8	0.243	236.90485	1594.375	-1895.34775	65.4976	1564.96841	-1871.60782	244.2444	1604.00131	-2020.3244	29.16976	1578.53012	-1966.24146	227.17796	1353.09402	-1974.06281	81.77207	1331.34369	-1962.19864	212.81862	1399.99908	-2096.73477	69.41663	1391.40518	-2077.9866	149.60224	1227.8418	-2152.91946	167.00354	1296.30112	-1918.32291	175.99218	1198.75885	-1868.44376	311.0944	1378.69202	-2032.47757	378.06019	1165.21255	-2078.57513	393.46504	1065.30556	-2063.33878	386.86668	980.38605	-2083.80585	342.3362	835.45509	-2005.05905	414.46564	835.32967	-2014.48898	396.48849	776.4579	-1969.60861	1.91734	1362.90863	-2001.99066	-56.60717	1165.13092	-2070.75546	-87.57891	1036.18103	-2026.77811	-93.5093	939.30763	-2017.51755	-29.52565	819.22287	-1943.15567	-104.70884	807.65068	-1940.28687	-85.14711	769.36844	-1908.94669	298.40546	957.19025	-1973.28079	25.58215	951.8631	-1951.62155	226.35216	989.39583	-2140.2121	65.92932	1021.92017	-2131.21674	295.29442	657.15012	-2100.62851	299.5318	506.82259	-2042.3288	255.71898	308.12162	-2024.66904	279.98426	160.7967	-2100.57297	221.28714	111.58916	-2151.03897	253.95401	82.21614	-1977.50229	17.85165	668.46458	-2088.78448	41.48425	503.75614	-1978.66821	47.01265	330.53837	-2010.15457	34.38738	143.49784	-2085.3476	74.58792	100.7449	-2154.72733	58.03779	83.67988	-1982.02988
